<svg width="24" height="24" viewBox="0 0 24 24" fill="none" xmlns="http://www.w3.org/2000/svg">
<path d="M18.9209 11.3616C18.52 10.4593 17.9372 9.64939 17.209 8.98261L16.608 8.43123C16.5876 8.41302 16.563 8.4001 16.5365 8.3936C16.5099 8.3871 16.4822 8.38722 16.4557 8.39395C16.4292 8.40067 16.4047 8.41381 16.3845 8.43219C16.3642 8.45057 16.3488 8.47364 16.3395 8.49938L16.0711 9.26967C15.9038 9.7529 15.5961 10.2465 15.1604 10.7318C15.1315 10.7627 15.0984 10.771 15.0757 10.7731C15.053 10.7751 15.0179 10.771 14.9869 10.7421C14.958 10.7173 14.9435 10.6801 14.9456 10.643C15.022 9.39977 14.6503 7.99755 13.8366 6.47143C13.1634 5.20345 12.2279 4.21426 11.059 3.52451L10.2062 3.02269C10.0946 2.95661 9.95215 3.04334 9.95834 3.17345L10.0038 4.1647C10.0348 4.84206 9.95628 5.44094 9.77042 5.93863C9.54325 6.54784 9.21696 7.11369 8.79981 7.6217C8.5095 7.97476 8.18047 8.2941 7.81888 8.57372C6.94803 9.24316 6.23992 10.1009 5.74757 11.0828C5.25643 12.0733 5.0006 13.1638 5 14.2693C5 15.244 5.19206 16.1878 5.57204 17.0779C5.93894 17.9348 6.46842 18.7126 7.1312 19.3681C7.8003 20.0289 8.57678 20.5493 9.44206 20.9107C10.3383 21.2866 11.2883 21.4766 12.2692 21.4766C13.2501 21.4766 14.2001 21.2866 15.0963 20.9128C15.9595 20.5535 16.7444 20.0295 17.4072 19.3701C18.0763 18.7093 18.6008 17.937 18.9664 17.0799C19.3458 16.1923 19.5404 15.2367 19.5384 14.2714C19.5384 13.2636 19.3319 12.2847 18.9209 11.3616Z" fill="#E55C5C"/>
</svg>
