<svg width="24" height="24" viewBox="0 0 24 24" fill="none" xmlns="http://www.w3.org/2000/svg">
<path d="M6.00997 5.60575C5.85248 6.10597 6.24355 7.2127 6.41587 7.40561L6.26574 7.66038L9.30308 18.266C9.4738 18.9081 9.96865 18.9484 10.1947 18.8883L18.1304 16.7786C18.9185 16.6837 19.054 16.2466 19.0233 16.0399L16.1005 5.0458L15.7758 4.91726C15.9093 4.6908 15.987 3.52628 15.5734 3.06329C15.0565 2.48455 6.20684 4.98047 6.00997 5.60575Z" stroke="#359740" stroke-width="1.28571"/>
<path d="M3.46146 11.2722C3.38768 11.8048 4.02213 12.7688 4.24506 12.9066L4.13207 13.1981L9.44573 22.6414C9.75323 23.2169 10.2948 23.1126 10.5271 22.9885L18.6816 18.6321C19.5134 18.311 19.5757 17.8461 19.5028 17.6538L14.2381 7.79912L13.8632 7.76819C13.9636 7.50901 13.8237 6.35281 13.2887 6.02208C12.6199 5.60868 3.5537 10.6063 3.46146 11.2722Z" fill="white" stroke="#359740" stroke-width="1.28571"/>
</svg>
