<svg width="24" height="24" viewBox="0 0 24 24" fill="none" xmlns="http://www.w3.org/2000/svg">
<path d="M6.75529 9.18355C6.31778 9.44433 5.85995 9.60051 5.37284 9.65275C5.04466 9.68963 4.73251 9.65158 4.47144 9.55041C4.04344 9.38066 3.72587 9.07505 3.53041 8.6453C3.4853 8.54613 3.48219 8.43126 3.52652 8.32547C3.70799 7.8858 4.01426 7.57718 4.44123 7.39271C4.69741 7.28203 5.01254 7.23893 5.33986 7.26326C6.0165 7.31749 6.63614 7.57376 7.23253 8.026L7.55581 8.02005C7.62333 7.74169 7.76988 7.48626 7.97545 7.27501L7.80707 6.99253C7.10561 6.72432 6.56202 6.32933 6.16538 5.78139C5.96944 5.51533 5.84577 5.22954 5.80532 4.95018C5.73718 4.49122 5.84432 4.06785 6.11986 3.68417C6.1834 3.59494 6.2833 3.5354 6.39201 3.52195C6.86057 3.4621 7.28394 3.56924 7.65523 3.8475C7.88172 4.01597 8.07428 4.2607 8.2151 4.55961C8.50495 5.17121 8.59381 5.83725 8.49606 6.58185L8.66444 6.86433C8.94599 6.78054 9.24244 6.77659 9.51941 6.84961L9.67841 6.56807C9.56226 5.82492 9.6316 5.15796 9.90437 4.54249C10.0366 4.23955 10.223 3.98836 10.4457 3.81362C10.8076 3.52785 11.2282 3.4032 11.7013 3.45272C11.8099 3.46266 11.9095 3.52004 11.9808 3.60828C12.2692 3.98259 12.387 4.4073 12.3293 4.86658C12.2941 5.14434 12.1791 5.43701 11.9905 5.70814C11.7129 6.11176 11.3577 6.44019 10.9202 6.70097C10.7514 6.80159 10.5689 6.88703 10.3788 6.96764L10.2198 7.24918C10.3206 7.34783 10.4166 7.45402 10.4926 7.58149C10.5686 7.70895 10.6163 7.84389 10.6551 7.9795L10.9839 7.97495C11.5658 7.50206 12.1787 7.23009 12.855 7.15845C13.1832 7.12157 13.4953 7.15962 13.7564 7.26079C14.1844 7.43054 14.502 7.73615 14.6974 8.1659C14.7425 8.26507 14.7422 8.38199 14.7013 8.48573C14.5517 8.8457 14.3185 9.12015 14.005 9.30701C13.9361 9.34807 13.8651 9.3857 13.7901 9.41643C13.5339 9.52711 13.2222 9.56817 12.8914 9.54589C12.2148 9.49166 11.5951 9.23538 11.0022 8.7811L10.6789 8.78704C10.6128 9.0599 10.4662 9.31534 10.2641 9.52453C10.3237 9.62443 10.3867 9.72228 10.4462 9.82218C11.1353 10.0931 11.6713 10.4833 12.0673 11.0223C12.2632 11.2883 12.3869 11.5741 12.4274 11.8535C12.4699 12.1363 12.4375 12.403 12.3466 12.658C12.6432 13.0694 12.942 13.461 13.2339 13.8332C13.2678 13.5376 13.3546 13.2524 13.5033 12.977C13.8227 12.385 14.3646 11.9547 15.0647 11.7428C15.6099 11.5766 16.1795 11.5452 16.7466 11.6507C16.8889 11.6779 17.0097 11.7787 17.056 11.9191C17.1024 12.0596 17.0669 12.2115 16.9668 12.3178C16.6867 12.6155 16.331 13.1544 16.2517 13.6872C16.1282 14.5218 15.668 15.0109 15.1548 15.3168C14.9997 15.4092 14.8448 15.4783 14.6878 15.5438C15.9535 16.8997 17.1174 17.8027 18.0937 18.1639C18.3026 18.2401 18.4078 18.4715 18.3316 18.6804C18.2969 18.7711 18.2355 18.8404 18.1597 18.8856C18.0598 18.9451 17.9332 18.9599 17.815 18.9183C17.1122 18.6555 16.3907 18.1892 15.6819 17.6032L15.6233 17.6381C15.3358 17.8842 15.0111 18.1384 14.6528 18.352C13.9776 18.7545 13.1735 19.019 12.2442 18.8306C11.5815 18.698 10.6917 18.8736 10.132 19.0625C9.97774 19.117 9.80869 19.0684 9.70449 18.9484C9.60029 18.8285 9.57466 18.6523 9.64662 18.5067C9.9545 17.8796 10.3977 17.3073 10.9652 16.8103C11.6761 16.1858 12.4861 15.8057 13.3062 15.709C13.4507 15.6929 13.5903 15.6844 13.7306 15.6848C13.7169 15.6696 13.7012 15.651 13.6875 15.6359C13.0026 14.8629 12.3687 14.0501 11.8104 13.2857C11.3522 13.3394 10.9377 13.2316 10.5795 12.9596C10.353 12.7911 10.1605 12.5464 10.0196 12.2475C9.72978 11.6359 9.64092 10.9698 9.73523 10.2273L9.56685 9.94482C9.2853 10.0286 8.98885 10.0326 8.71188 9.95954L8.55287 10.2411C8.66902 10.9842 8.59969 11.6512 8.32692 12.2667C8.19467 12.5696 8.00824 12.8208 7.78558 12.9955C7.72284 13.0469 7.65599 13.0914 7.5871 13.1325C7.27361 13.3194 6.9178 13.3961 6.53344 13.3544C6.42274 13.341 6.32524 13.2871 6.25396 13.1988C5.96548 12.8245 5.84772 12.3998 5.90545 11.9405C5.94064 11.6627 6.05566 11.3701 6.24422 11.0989C6.63099 10.5416 7.16178 10.1318 7.85248 9.8415L8.01288 9.55447C7.91206 9.45582 7.81607 9.34962 7.7401 9.22216C7.66412 9.0947 7.61637 8.95975 7.57755 8.82415L7.25427 8.83009C7.08607 8.96303 6.92409 9.08293 6.75529 9.18355ZM5.27496 8.06297C5.07417 8.04726 4.89597 8.06944 4.75479 8.13025C4.57851 8.20264 4.4482 8.313 4.35008 8.46954C4.45142 8.62389 4.58868 8.72884 4.76661 8.80019C4.90745 8.85631 5.0869 8.8754 5.28849 8.85329C5.69717 8.81045 6.06828 8.67328 6.43073 8.44323C6.05791 8.21724 5.68204 8.09579 5.27496 8.06297ZM11.324 5.25571C11.4393 5.08891 11.5079 4.92197 11.5255 4.7714C11.5495 4.58439 11.5169 4.41235 11.4328 4.24772C11.2484 4.25957 11.0894 4.32169 10.9419 4.44232C10.8247 4.53552 10.7169 4.68377 10.6352 4.86786C10.4705 5.24155 10.3985 5.62994 10.4179 6.06193C10.7981 5.85394 11.0933 5.58931 11.324 5.25571ZM12.9474 8.74683C13.1482 8.76255 13.3264 8.74036 13.4675 8.67956C13.6418 8.60372 13.7755 8.49131 13.8723 8.34027C13.7709 8.18591 13.6337 8.08097 13.4578 8.01306C13.317 7.95694 13.1375 7.93785 12.9359 7.95996C12.5272 8.0028 12.1596 8.13792 11.7937 8.37002C12.1644 8.59257 12.5403 8.71402 12.9474 8.74683ZM15.459 13.5714C15.5214 13.1513 15.698 12.7426 15.9081 12.398C15.7024 12.4132 15.5001 12.4497 15.2942 12.5117C14.9514 12.618 14.4775 12.8491 14.2023 13.3587C14.0412 13.6602 13.8782 14.1308 14.1924 14.8773C14.9993 14.6018 15.3601 14.228 15.459 13.5714ZM6.89837 11.5541C6.78302 11.7209 6.71445 11.8878 6.69682 12.0384C6.67495 12.2289 6.70196 12.3995 6.78953 12.5621C6.97389 12.5502 7.13295 12.4881 7.28049 12.3675C7.39768 12.2743 7.50541 12.126 7.5871 11.9419C7.75188 11.5683 7.82385 11.1799 7.80446 10.7479C7.4242 10.9559 7.12906 11.2205 6.89837 11.5541ZM7.17259 4.49469C7.02023 4.38008 6.85946 4.32184 6.67377 4.3158C6.5942 4.47995 6.56895 4.64907 6.59385 4.83966C6.61749 4.98898 6.69267 5.15427 6.80912 5.3183C7.05301 5.64915 7.35077 5.90587 7.73399 6.10231C7.74144 5.66834 7.66071 5.28225 7.48432 4.91583C7.40232 4.73127 7.29269 4.58651 7.17259 4.49469ZM13.3974 16.5044C12.7397 16.5836 12.0778 16.8988 11.4883 17.4136C11.2586 17.6159 11.0531 17.8271 10.8722 18.0563C11.3786 17.9739 11.9255 17.9514 12.4019 18.0456C13.2508 18.2166 14.0474 17.9238 15.0561 17.0704C14.627 16.5932 14.1034 16.4198 13.3974 16.5044ZM11.0498 12.3151C11.2021 12.4297 11.3629 12.488 11.5486 12.494C11.6281 12.3299 11.6568 12.1587 11.6285 11.9701C11.6049 11.8208 11.5297 11.6555 11.4132 11.4915C11.1693 11.1607 10.8716 10.9039 10.4883 10.7075C10.4809 11.1415 10.5616 11.5276 10.738 11.894C10.82 12.0785 10.9297 12.2233 11.0498 12.3151ZM9.52185 9.09389C9.90079 8.86801 10.026 8.37316 9.80015 7.99422C9.57428 7.61528 9.07943 7.49005 8.70049 7.71592C8.32155 7.9418 8.19631 8.43665 8.42219 8.81559C8.64806 9.19453 9.14291 9.31976 9.52185 9.09389Z" fill="#359740"/>
</svg>
