<svg width="24" height="24" viewBox="0 0 24 24" fill="none" xmlns="http://www.w3.org/2000/svg">
<g clip-path="url(#clip0_23_2697)">
<path d="M18.852 7.72634C17.802 6.12376 16.158 5.11344 14.394 4.82892C14.412 4.70698 14.394 4.57344 14.328 4.45731C14.202 4.23666 13.944 4.11473 13.68 4.16698L10.038 4.89279L9.53397 3.39473C9.46197 3.17989 9.26397 3.02311 9.02997 2.99989C8.79597 2.97666 8.56797 3.08698 8.44797 3.2844L7.36196 5.0786C6.62397 4.53279 5.71797 4.16118 4.79997 4.16118C4.46997 4.16118 4.19997 4.42247 4.19997 4.74182C4.19997 5.06118 4.46997 5.32247 4.79997 5.32247C5.49597 5.32247 6.19196 5.64763 6.74396 6.08311L3.26997 8.3244C3.04797 8.46376 2.95197 8.73085 3.02997 8.97473C3.10197 9.2186 3.33597 9.38698 3.59997 9.38698H5.20197L4.21797 12.7141C4.14597 12.9696 4.25397 13.2367 4.48797 13.3702C4.58397 13.4283 4.69197 13.4457 4.79997 13.4457C4.81197 15.3444 5.68196 17.185 7.28396 18.3696C9.65396 20.1173 13.104 21.0057 17.544 21.0057C17.712 21.0057 17.88 21.0057 18.048 20.9999C19.44 20.9767 20.622 19.9489 20.796 18.6076C21.366 14.2238 20.712 10.5657 18.852 7.72634ZM19.608 18.4625C19.506 19.2347 18.834 19.827 18.036 19.8386C13.626 19.9025 10.254 19.1012 8.01596 17.4463C6.44397 16.285 5.74197 14.3399 6.08997 12.4702L6.95396 11.6631C6.16197 13.5792 6.73197 15.7683 8.38197 16.9876C10.428 18.4973 13.512 19.2638 17.544 19.2638C17.706 19.2638 17.868 19.2638 18.036 19.258C18.366 19.2521 18.63 18.985 18.624 18.6657C18.618 18.3463 18.348 18.0967 18.024 18.0967C18.018 18.0967 18.018 18.0967 18.012 18.0967C14.022 18.1663 11.022 17.4696 9.11397 16.0644C7.82996 15.118 7.43397 13.347 8.17797 11.8605L9.73197 13.8115C9.83997 13.9509 10.02 14.0321 10.2 14.0321C10.266 14.0321 10.332 14.0205 10.392 14.0031C10.638 13.9218 10.8 13.7012 10.8 13.4515V9.31731L15.072 8.80053C15.342 8.76569 15.558 8.56247 15.594 8.30118C15.63 8.03989 15.48 7.79021 15.228 7.68569L12.696 6.68118L13.464 5.90892C15.174 5.93795 16.836 6.80892 17.838 8.34182C19.542 10.9547 20.142 14.3573 19.608 18.4625ZM7.52996 6.96569C7.54197 6.95989 7.54197 6.95408 7.54797 6.94827C7.70996 7.19795 7.79996 7.44182 7.79996 7.64505C7.79996 7.9644 8.06997 8.22569 8.39997 8.22569C8.72997 8.22569 8.99997 7.9644 8.99997 7.64505C8.99997 7.09343 8.71197 6.47215 8.24397 5.90892L8.80197 4.98569L9.05997 5.75214C9.15597 6.03666 9.45597 6.19924 9.74997 6.14118L12.012 5.68827L11.208 6.49537C11.07 6.63473 11.01 6.83214 11.052 7.01795C11.094 7.20376 11.226 7.36053 11.412 7.43602L12.648 7.92376L10.122 8.2315C9.82796 8.26634 9.59997 8.51602 9.59997 8.80634V11.7444L8.09997 9.85731C7.99797 9.72376 7.83597 9.64247 7.66796 9.63085C7.65596 9.63085 7.63796 9.63085 7.62597 9.63085C7.46996 9.63085 7.31996 9.68892 7.20597 9.79343L5.99396 10.9315L6.57596 8.95731C6.62997 8.78892 6.59397 8.60311 6.47997 8.45795C6.36597 8.31279 6.18597 8.22569 5.99996 8.22569H5.57997L7.52996 6.96569Z" fill="#359740"/>
<path d="M12.774 11.5414C12.894 11.6517 13.044 11.7097 13.2 11.7097C13.356 11.7097 13.506 11.6517 13.626 11.5414C13.86 11.3149 13.86 10.9491 13.626 10.7227L13.026 10.142C12.792 9.91556 12.414 9.91556 12.18 10.142C11.946 10.3685 11.946 10.7343 12.18 10.9607L12.774 11.5414Z" fill="#359740"/>
<path d="M16.374 10.9607C16.494 11.071 16.644 11.1291 16.8 11.1291C16.956 11.1291 17.106 11.071 17.226 10.9607C17.46 10.7342 17.46 10.3684 17.226 10.142L16.626 9.56132C16.392 9.33487 16.014 9.33487 15.78 9.56132C15.546 9.78777 15.546 10.1536 15.78 10.38L16.374 10.9607Z" fill="#359740"/>
<path d="M13.626 14.7814L13.026 14.2007C12.792 13.9743 12.414 13.9743 12.18 14.2007C11.946 14.4272 11.946 14.793 12.18 15.0194L12.78 15.6001C12.894 15.7162 13.044 15.7743 13.2 15.7743C13.356 15.7743 13.506 15.7162 13.626 15.6059C13.86 15.3794 13.86 15.0078 13.626 14.7814Z" fill="#359740"/>
<path d="M15.1739 13.8639C15.2939 13.9742 15.4439 14.0323 15.5999 14.0323C15.7559 14.0323 15.9059 13.9742 16.0259 13.8639C16.2599 13.6374 16.2599 13.2716 16.0259 13.0452L15.4259 12.4645C15.1919 12.2381 14.8139 12.2381 14.5799 12.4645C14.3459 12.691 14.3459 13.0568 14.5799 13.2832L15.1739 13.8639Z" fill="#359740"/>
<path d="M17.5739 13.8639L18.1739 14.4446C18.2939 14.5549 18.4439 14.6129 18.5999 14.6129C18.7559 14.6129 18.9059 14.5549 19.0259 14.4446C19.2599 14.2181 19.2599 13.8523 19.0259 13.6258L18.4259 13.0452C18.1919 12.8188 17.8139 12.8188 17.5799 13.0452C17.3399 13.2658 17.3399 13.6375 17.5739 13.8639Z" fill="#359740"/>
<path d="M16.626 15.362C16.392 15.1355 16.014 15.1355 15.78 15.362C15.546 15.5884 15.546 15.9542 15.78 16.1807L16.38 16.7613C16.494 16.8775 16.644 16.9355 16.8 16.9355C16.956 16.9355 17.106 16.8775 17.226 16.7671C17.46 16.5407 17.46 16.1749 17.226 15.9484L16.626 15.362Z" fill="#359740"/>
</g>
<defs>
<clipPath id="clip0_23_2697">
<rect width="18" height="18" fill="white" transform="translate(3 3)"/>
</clipPath>
</defs>
</svg>
