<svg width="24" height="24" viewBox="0 0 24 24" fill="none" xmlns="http://www.w3.org/2000/svg">
<path d="M15.4144 16.9443C15.285 16.9443 15.15 16.9275 15.0038 16.8825C14.0025 16.6068 12.8944 16.9275 12.1969 17.6868C11.8988 18.0075 11.4994 18.1818 11.0719 18.1818C10.2281 18.1818 9.54189 17.4956 9.54189 16.6518C9.54189 16.59 9.55314 16.5112 9.56439 16.4156C9.68251 15.6731 9.49689 14.925 9.05251 14.3175C8.61376 13.7212 7.93876 13.3106 7.20751 13.1981C6.76876 13.1306 6.43689 12.7425 6.43689 12.3037C6.43689 12.0731 6.52126 11.865 6.67876 11.6906C7.23001 11.0943 7.50001 10.2843 7.41001 9.47433C7.31439 8.66996 6.88126 7.93871 6.21189 7.47746C5.95876 7.30308 5.60439 7.36496 5.43001 7.61808C5.25001 7.87121 5.31189 8.22558 5.57064 8.39996C5.97001 8.68121 6.23439 9.11433 6.29064 9.60371C6.34689 10.0875 6.18376 10.5768 5.85189 10.9368C5.60439 11.2068 5.31189 11.6625 5.31189 12.315C5.31189 13.3106 6.05439 14.1712 7.03876 14.3231C7.47751 14.3906 7.88251 14.6325 8.14689 14.9925C8.41126 15.3581 8.52376 15.8025 8.45064 16.2525C8.42251 16.4156 8.41689 16.545 8.41689 16.6575C8.41689 18.1256 9.60939 19.3125 11.0719 19.3125C11.82 19.3125 12.5119 19.0087 13.0238 18.4518C13.4456 17.9962 14.1094 17.805 14.7113 17.9681C14.9531 18.0356 15.1894 18.0693 15.42 18.0693C15.7294 18.0693 15.9825 17.8162 15.9825 17.5068C15.9769 17.1975 15.7238 16.9443 15.4144 16.9443Z" fill="#359740"/>
<path d="M18.6206 18.3337C19.3237 17.5631 19.7569 16.5394 19.7569 15.4144C19.7569 14.835 19.515 14.1938 19.3125 13.6875C20.2687 12.8888 21 11.7863 21 10.4475C21 8.04562 19.0538 6.105 16.6575 6.105C16.1737 6.105 15.8138 6.22875 15.375 6.375C14.9362 4.81125 13.395 3.61875 11.6906 3.61875C10.8919 3.61875 10.3575 3.6975 9.75 4.125C9.06938 3.33188 7.85437 3 6.72375 3C4.665 3 3 4.665 3 6.72375C3 7.995 3.71438 9.08063 4.6875 9.75C4.07438 10.4138 3.61875 11.3362 3.61875 12.3094C3.61875 14.1712 5.14875 15.6619 6.9375 15.9375C6.90375 16.1569 6.72375 16.4269 6.72375 16.6575C6.72375 19.0594 8.67 21 11.0662 21C12.3263 21 13.4513 20.1731 14.25 19.3125C14.5594 19.5431 15.015 19.7569 15.4144 19.7569C16.2806 19.7569 17.085 19.4981 17.76 19.065C18.1762 19.6556 18.5362 20.2125 18.8231 20.7131C18.93 20.8988 19.1156 21 19.3125 21C19.4081 21 19.5037 20.9775 19.5938 20.9269C19.8638 20.775 19.9594 20.4319 19.8019 20.1619C19.4813 19.605 19.0819 18.9862 18.6206 18.3337ZM14.9194 18.4125C14.7225 18.2606 14.4862 18.1875 14.25 18.1875C13.9462 18.1875 13.6425 18.3112 13.4231 18.5475C12.9675 19.0425 12.0506 19.875 11.0662 19.875C9.31687 19.875 7.89375 18.4744 7.84875 16.7419C7.86 16.7137 7.87125 16.6913 7.8825 16.6631C7.94438 16.5169 8.0175 16.3312 8.05125 16.1062C8.09625 15.8137 8.02313 15.51 7.84875 15.2681C7.66875 15.0319 7.40438 14.8688 7.10625 14.8238C5.9475 14.6494 4.74375 13.6594 4.74375 12.3094C4.74375 11.7075 5.03062 11.0325 5.51437 10.5094C5.73375 10.2675 5.84062 9.94688 5.80687 9.62063C5.77312 9.29438 5.59875 9.00188 5.32875 8.82188C4.56375 8.29875 4.125 7.52812 4.125 6.72375C4.125 5.28938 5.28938 4.125 6.72375 4.125C7.67438 4.125 8.50687 4.40625 8.895 4.85625C9.12 5.115 9.435 5.25 9.75 5.25C9.975 5.25 10.2 5.1825 10.3969 5.04188C10.7344 4.80563 10.9987 4.74375 11.6906 4.74375C12.8606 4.74375 13.98 5.57625 14.295 6.67875C14.3794 6.97688 14.5819 7.22437 14.8519 7.37063C15.015 7.455 15.195 7.5 15.375 7.5C15.4931 7.5 15.6169 7.48313 15.735 7.44375L15.7631 7.4325C16.1681 7.2975 16.3763 7.23 16.6519 7.23C18.4294 7.23 19.8694 8.67562 19.8694 10.4475C19.8694 11.5219 19.1719 12.3319 18.5869 12.8212C18.21 13.1362 18.0806 13.6538 18.2662 14.1094C18.3844 14.4019 18.6319 15.0037 18.6319 15.4144C18.6319 16.1625 18.3731 16.8544 17.94 17.4C17.1919 16.3988 16.3313 15.3412 15.42 14.2837L17.5631 10.0031C17.7037 9.7275 17.5913 9.39 17.31 9.24937C17.0344 9.10875 16.6969 9.22125 16.5563 9.5025L14.6213 13.3669C13.755 12.3881 12.8606 11.4263 11.9887 10.5319L12.5512 7.0275C12.6019 6.71812 12.3938 6.43125 12.0844 6.38063C11.7806 6.33 11.4881 6.53813 11.4375 6.8475L11.0044 9.54187C10.3744 8.90625 9.75562 8.32687 9.1875 7.82062V6.375C9.1875 6.06562 8.93437 5.8125 8.625 5.8125C8.31563 5.8125 8.0625 6.06562 8.0625 6.375V6.85875C7.48875 6.40313 6.99937 6.06 6.62812 5.87438C6.34687 5.73375 6.00938 5.84625 5.87438 6.12188C5.73375 6.40313 5.84625 6.74062 6.12188 6.87562C6.61688 7.12313 7.34813 7.68 8.21438 8.445C8.23125 8.45625 8.2425 8.4675 8.25375 8.47875C9.15938 9.2775 10.2169 10.3012 11.3138 11.4375H8.0625C7.75313 11.4375 7.5 11.6906 7.5 12C7.5 12.3094 7.75313 12.5625 8.0625 12.5625H12.3094C12.3319 12.5625 12.3488 12.5512 12.3713 12.5512C12.9394 13.1644 13.5131 13.8 14.07 14.4356L10.7231 15.3975C10.425 15.4819 10.2506 15.7969 10.3406 16.095C10.4081 16.3369 10.6275 16.5 10.875 16.5C10.9256 16.5 10.9762 16.4944 11.0325 16.4775L14.8744 15.375C15.6788 16.3256 16.4325 17.265 17.0962 18.1538C16.6069 18.4575 16.0275 18.6375 15.4087 18.6375C15.3469 18.6319 15.1331 18.5644 14.9194 18.4125Z" fill="#359740"/>
</svg>
