<svg width="24" height="24" viewBox="0 0 24 24" fill="none" xmlns="http://www.w3.org/2000/svg">
<path d="M8.88672 21.3334C9.71515 21.3334 10.3867 20.6618 10.3867 19.8334C10.3867 19.0049 9.71515 18.3334 8.88672 18.3334C8.05829 18.3334 7.38672 19.0049 7.38672 19.8334C7.38672 20.6618 8.05829 21.3334 8.88672 21.3334Z" fill="#359740"/>
<path d="M18 21.3334C18.8284 21.3334 19.5 20.6618 19.5 19.8334C19.5 19.0049 18.8284 18.3334 18 18.3334C17.1716 18.3334 16.5 19.0049 16.5 19.8334C16.5 20.6618 17.1716 21.3334 18 21.3334Z" fill="#359740"/>
<path d="M15.0467 4.66671C15.0163 4.44577 15.0007 4.22305 15 4.00004C15.0007 3.77703 15.0163 3.55431 15.0467 3.33337H7.66003L8.09337 4.66671H15.0467Z" fill="#359740"/>
<path d="M20 9.00003H19.72L18.8866 12.6667H8.88662L5.83995 3.02003C5.807 2.91767 5.74977 2.8248 5.67315 2.74935C5.59654 2.67389 5.5028 2.61809 5.39995 2.5867L2.66662 1.7467C2.58257 1.72087 2.49426 1.71185 2.40673 1.72015C2.3192 1.72846 2.23416 1.75392 2.15647 1.79509C1.99956 1.87823 1.88211 2.02029 1.82995 2.19003C1.77779 2.35977 1.7952 2.54328 1.87834 2.70018C1.96148 2.85709 2.10355 2.97454 2.27329 3.0267L4.66662 3.76003L7.72662 13.4267L6.63329 14.32L6.54662 14.4067C6.27618 14.7184 6.12289 15.1146 6.11315 15.5271C6.10342 15.9396 6.23784 16.3426 6.49329 16.6667C6.67499 16.8877 6.90589 17.0631 7.16751 17.1788C7.42913 17.2946 7.71421 17.3475 7.99995 17.3334H19.1266C19.3034 17.3334 19.473 17.2631 19.598 17.1381C19.723 17.0131 19.7933 16.8435 19.7933 16.6667C19.7933 16.4899 19.723 16.3203 19.598 16.1953C19.473 16.0703 19.3034 16 19.1266 16H7.89329C7.81652 15.9974 7.74172 15.975 7.67612 15.9351C7.61053 15.8951 7.55635 15.8389 7.51882 15.7719C7.48128 15.7048 7.46167 15.6293 7.46187 15.5525C7.46207 15.4757 7.48207 15.4002 7.51995 15.3334L9.12662 14H19.42C19.5741 14.0038 19.7247 13.954 19.8463 13.8592C19.9678 13.7644 20.0527 13.6304 20.0866 13.48L21.1333 8.87337C20.7616 8.95861 20.3813 9.00111 20 9.00003Z" fill="#359740"/>
<path d="M20 7.33329C21.8409 7.33329 23.3333 5.84091 23.3333 3.99996C23.3333 2.15901 21.8409 0.666626 20 0.666626C18.159 0.666626 16.6666 2.15901 16.6666 3.99996C16.6666 5.84091 18.159 7.33329 20 7.33329Z" fill="#359740"/>
</svg>
