<svg width="24" height="24" viewBox="0 0 24 24" fill="none" xmlns="http://www.w3.org/2000/svg">
<path d="M20.4138 22.1664C20.5057 22.0238 20.5375 21.8506 20.5022 21.6847C20.467 21.5187 20.3676 21.3734 20.2257 21.2805C19.5306 20.8294 18.724 20.3012 17.857 19.7053C18.1947 18.349 18.4125 16.9657 18.5082 15.5713C18.647 13.1076 18.2247 11.1272 17.2508 9.5727C15.3551 6.56955 11.7426 5.83173 8.83622 5.23668C7.04905 4.87207 5.36341 4.53248 4.67358 3.75987C4.5924 3.66952 4.48729 3.60404 4.37043 3.57103C4.25357 3.53801 4.12974 3.53882 4.01332 3.57336C3.89689 3.60789 3.79264 3.67474 3.71264 3.76614C3.63264 3.85755 3.58018 3.96977 3.56134 4.08979C3.48157 4.4779 2.22681 13.3857 6.93582 18.0664C9.25722 20.3662 12.5995 21.2175 16.8808 20.5899C17.845 21.2879 18.7395 21.8532 19.5282 22.3547C19.6708 22.4466 19.8439 22.4784 20.0098 22.4432C20.1757 22.4079 20.3209 22.3084 20.4138 22.1664ZM7.82977 17.1578C4.5027 13.868 4.57789 7.85435 4.71675 5.39067C5.94809 5.93343 7.24697 6.30756 8.57828 6.50295C11.3832 7.07297 14.5567 7.72169 16.1636 10.258C17.3915 12.213 17.5723 15.0552 16.7186 18.901C13.3431 16.4709 9.53506 13.154 8.35323 9.35439C8.2956 9.20079 8.18143 9.07507 8.03412 9.00299C7.88682 8.93091 7.71753 8.91794 7.56096 8.96672C7.40439 9.0155 7.27239 9.12235 7.19203 9.26536C7.11167 9.40838 7.08902 9.57673 7.12873 9.7359C8.34181 13.666 11.9575 16.9721 15.3101 19.4652C12.1202 19.678 9.61614 18.9061 7.84296 17.1521L7.82977 17.1578Z" fill="#359740"/>
</svg>
