<svg width="24" height="24" viewBox="0 0 24 24" fill="none" xmlns="http://www.w3.org/2000/svg">
<path d="M22 10.1001C22.1 9.60006 21.7 9.00006 21.2 9.00006L15.5 8.20006L12.9 3.00006C12.8 2.80006 12.7 2.70006 12.5 2.60006C12 2.30006 11.4 2.50006 11.1 3.00006L8.6 8.20006L2.9 9.00006C2.6 9.00006 2.4 9.10006 2.3 9.30006C1.9 9.70006 1.9 10.3001 2.3 10.7001L6.4 14.7001L5.4 20.4001C5.4 20.6001 5.4 20.8001 5.5 21.0001C5.8 21.5001 6.4 21.7001 6.9 21.4001L12 18.7001L17.1 21.4001C17.2 21.5001 17.4 21.5001 17.6 21.5001C17.7 21.5001 17.7 21.5001 17.8 21.5001C18.3 21.4001 18.7 20.9001 18.6 20.3001L17.6 14.6001L21.7 10.6001C21.9 10.5001 22 10.3001 22 10.1001Z" fill="#FFCF55"/>
</svg>
