<svg width="24" height="25" viewBox="0 0 24 25" fill="none" xmlns="http://www.w3.org/2000/svg">
<path d="M10.2524 5.12435L8.72845 3.71496C8.42006 3.42835 7.93686 3.42835 7.62846 3.71496L6.10409 5.12435C5.40473 5.77432 5 6.68283 5 7.63386V13.6289C5 14.1037 5.39964 14.5115 5.87786 14.5115H7.66477V16.0827C7.26705 16.2732 6.94886 16.6883 6.94886 17.1701V20.3146C6.94886 20.9765 7.50691 21.5 8.1737 21.5H8.17577C8.8426 21.5 9.375 20.9765 9.375 20.3146V17.1701C9.375 16.6883 9.09659 16.2732 8.69886 16.0827V14.5018V11.9885C8.69886 11.7968 8.84121 11.6687 9.03439 11.6687H9.03494C9.22808 11.6687 9.375 11.7968 9.375 11.9885V14.5115H10.4678C10.9461 14.5115 11.3636 14.1037 11.3636 13.6289V7.63386C11.3636 6.68283 10.9518 5.77432 10.2524 5.12435ZM18.4917 3.92998H18.4507C18.1565 3.92998 17.9261 4.14714 17.9261 4.43924V7.20582C17.9261 7.61029 17.5836 7.95727 17.1762 7.95727H17.1742C16.7667 7.95727 16.4148 7.61029 16.4148 7.20582V4.43924C16.4148 4.14714 16.2 3.92998 15.9057 3.92998H15.9037C15.6094 3.92998 15.3807 4.14714 15.3807 4.43924V7.20582C15.3807 7.61029 15.0426 7.95727 14.6352 7.95727H14.6332C14.2258 7.95727 13.9091 7.61029 13.9091 7.20582V4.43924C13.9091 4.14714 13.659 3.92998 13.3647 3.92998H13.3627C13.0685 3.92998 12.8352 4.14714 12.8352 4.43924V13.5868C12.8352 14.0848 13.2427 14.5115 13.7443 14.5115H15.4205V16.0827C14.983 16.2732 14.7045 16.6883 14.7045 17.1701V20.3146C14.7045 20.9765 15.2585 21.5 15.9254 21.5H15.9246C16.5914 21.5 17.1307 20.9765 17.1307 20.3146V17.1701C17.1307 16.6883 16.8523 16.2732 16.4148 16.0827V11.9402C16.4943 11.7714 16.5943 11.6413 16.7709 11.6413C16.964 11.6413 17.1307 11.7968 17.1307 11.9885V14.5115H18.1162C18.6179 14.5115 19 14.0848 19 13.5868V4.43924C19 4.14714 18.786 3.92998 18.4917 3.92998Z" fill="#359740"/>
</svg>
