<svg width="24" height="24" viewBox="0 0 24 24" fill="none" xmlns="http://www.w3.org/2000/svg">
<path d="M14.1996 4.35484C14.0616 4.22884 13.8695 4.16883 13.6775 4.21083L13.4975 4.24684C13.2035 4.21683 12.9035 4.19883 12.5975 4.19883C11.6674 4.19883 10.7673 4.35484 9.93327 4.63686L9.53124 3.41278C9.45924 3.19076 9.26123 3.02875 9.02721 3.00475C8.79319 2.97475 8.56518 3.08876 8.44517 3.29277L7.35909 5.1469C6.62104 4.58286 5.71498 4.19883 4.79692 4.19883C4.46689 4.19883 4.19687 4.46885 4.19687 4.79888C4.19687 5.1289 4.46689 5.39892 4.79692 5.39892C5.49296 5.39892 6.18901 5.73494 6.74105 6.18497L3.26681 8.50113C3.04479 8.64514 2.94879 8.92116 3.02679 9.17318C3.0988 9.4252 3.33281 9.59921 3.59683 9.59921H4.76091C4.40089 10.5293 4.19687 11.5433 4.19687 12.5994C4.19687 12.7494 4.20888 12.8934 4.22088 13.0434C4.18487 13.1695 4.19687 13.3015 4.23888 13.4155C4.64691 17.6698 8.23515 21 12.5975 21C17.2358 21 20.998 17.2377 20.998 12.5994C20.998 8.50713 18.0758 5.1049 14.1996 4.35484ZM12.5975 19.7999C8.9012 19.7999 5.84699 16.9977 5.44496 13.4095L6.015 12.8574C6.075 14.4595 6.71105 16.0497 7.93513 17.2677C9.21922 18.5518 10.9113 19.1999 12.6035 19.1999C14.2956 19.1999 15.9817 18.5578 17.2718 17.2677C17.5058 17.0337 17.5058 16.6557 17.2718 16.4217C17.0378 16.1877 16.6597 16.1877 16.4257 16.4217C14.3196 18.5278 10.8933 18.5278 8.78719 16.4217C7.4851 15.1196 6.98707 13.3075 7.29909 11.6153L7.56311 11.3573L9.72926 14.1655C9.83727 14.3155 10.0173 14.3995 10.1973 14.3995C10.2633 14.3995 10.3293 14.3875 10.3893 14.3695C10.6353 14.2855 10.7973 14.0575 10.7973 13.7995V9.5272L15.0696 8.99317C15.3396 8.95716 15.5557 8.74715 15.5917 8.47713C15.6277 8.20711 15.4777 7.94909 15.2256 7.84109L12.6935 6.80301L13.9295 5.52493C17.2658 6.15497 19.798 9.08317 19.798 12.5994C19.798 16.5717 16.5697 19.7999 12.5975 19.7999ZM7.52711 7.09703C7.53911 7.09103 7.53911 7.08503 7.54511 7.07903C7.70712 7.33705 7.79712 7.58907 7.79712 7.79908C7.79712 8.12911 8.06714 8.39912 8.39717 8.39912C8.72719 8.39912 8.99721 8.12911 8.99721 7.79908C8.99721 7.22904 8.70919 6.587 8.24115 6.00496L8.79919 5.05089L9.05721 5.84295C9.15322 6.13097 9.44724 6.30498 9.74726 6.24498L12.0094 5.77694L11.2054 6.611C11.0674 6.75501 11.0073 6.95902 11.0493 7.15104C11.0914 7.34305 11.2234 7.50506 11.4094 7.58307L12.6455 8.0871L10.1193 8.40512C9.82526 8.44113 9.59725 8.69915 9.59725 8.99917V12.0354L8.09714 10.0852C7.99514 9.94723 7.83313 9.86323 7.66511 9.85122C7.65311 9.85122 7.63511 9.85122 7.62311 9.85122C7.4671 9.85122 7.31709 9.91123 7.20308 10.0192L5.991 11.1953L6.57304 9.15518C6.62704 8.98116 6.59104 8.78915 6.47703 8.63914C6.36302 8.48913 6.18301 8.39912 5.997 8.39912H5.57697L7.52711 7.09703Z" fill="#359740"/>
</svg>
